<svg width="3016" height="1289" viewBox="0 0 3016 1289" fill="none" xmlns="http://www.w3.org/2000/svg">
<mask id="path-1-outside-1_5_51" maskUnits="userSpaceOnUse" x="744" y="476" width="2055" height="341" fill="black">
<rect fill="white" x="744" y="476" width="2055" height="341"/>
<path d="M766.2 790V502H811.8V751.6H921L915.4 790H766.2ZM961.344 703.2V502H1006.94V696C1006.94 715.2 1011.61 730.533 1020.94 742C1030.54 753.2 1045.21 758.8 1064.94 758.8C1105.48 758.8 1125.74 738 1125.74 696.4V502H1171.34V689.2C1171.34 721.467 1162.14 747.2 1143.74 766.4C1125.34 785.333 1098.81 794.8 1064.14 794.8C1029.48 794.8 1003.61 786.667 986.544 770.4C969.744 753.867 961.344 731.467 961.344 703.2ZM1295.38 790V538H1210.18V502H1429.38L1423.78 538H1340.98V790H1295.38ZM1472.06 790V502H1517.66V790H1472.06ZM1669.69 790V675.2L1574.49 504.8L1622.09 500L1692.49 634.4L1763.29 500L1810.89 504.8L1715.29 675.6V790H1669.69ZM1833.39 787.2C1828.86 782.133 1826.59 776.133 1826.59 769.2C1826.59 762.267 1828.86 756.4 1833.39 751.6C1837.93 746.533 1843.93 744 1851.39 744C1858.86 744 1864.86 746.533 1869.39 751.6C1873.93 756.4 1876.19 762.267 1876.19 769.2C1876.19 776.133 1873.93 782.133 1869.39 787.2C1864.86 792 1858.86 794.4 1851.39 794.4C1843.93 794.4 1837.93 792 1833.39 787.2ZM1939.25 790V502H1984.85V622H2105.65V502H2151.25V790H2105.65V660.4H1984.85V790H1939.25ZM2237.68 790V502H2283.28V751.6H2392.48L2386.88 790H2237.68ZM2447.84 790V502H2493.44V790H2447.84ZM2579.87 790V504.4C2600.67 501.2 2632.54 499.6 2675.47 499.6C2704.27 499.6 2727.07 507.6 2743.87 523.6C2760.94 539.333 2769.47 558.133 2769.47 580C2769.47 606.933 2758.81 628 2737.47 643.2C2763.34 657.333 2776.27 679.733 2776.27 710.4C2776.27 733.6 2767.87 753.467 2751.07 770C2734.54 786.533 2709.47 794.8 2675.87 794.8C2635.87 794.8 2603.87 793.2 2579.87 790ZM2625.47 628.8H2697.07C2700.01 626.4 2702.27 624.533 2703.87 623.2C2705.74 621.867 2707.74 620 2709.87 617.6C2712.01 614.933 2713.87 612.133 2715.47 609.2C2719.47 601.733 2721.47 593.733 2721.47 585.2C2721.47 552.133 2702.14 535.6 2663.47 535.6C2655.21 535.6 2642.54 536.133 2625.47 537.2V628.8ZM2625.47 756.4C2647.34 758 2662.27 758.8 2670.27 758.8C2691.61 758.8 2706.54 754.533 2715.07 746C2723.87 737.467 2728.27 725.333 2728.27 709.6C2728.27 693.6 2723.74 681.6 2714.67 673.6C2705.87 665.333 2690.67 661.2 2669.07 661.2H2625.47V756.4Z"/>
</mask>
<path d="M766.2 790V502H811.8V751.6H921L915.4 790H766.2ZM961.344 703.2V502H1006.94V696C1006.94 715.2 1011.61 730.533 1020.94 742C1030.54 753.2 1045.21 758.8 1064.94 758.8C1105.48 758.8 1125.74 738 1125.74 696.4V502H1171.34V689.2C1171.34 721.467 1162.14 747.2 1143.74 766.4C1125.34 785.333 1098.81 794.8 1064.14 794.8C1029.48 794.8 1003.61 786.667 986.544 770.4C969.744 753.867 961.344 731.467 961.344 703.2ZM1295.38 790V538H1210.18V502H1429.38L1423.78 538H1340.98V790H1295.38ZM1472.06 790V502H1517.66V790H1472.06ZM1669.69 790V675.2L1574.49 504.8L1622.09 500L1692.49 634.4L1763.29 500L1810.89 504.8L1715.29 675.6V790H1669.69ZM1833.39 787.2C1828.86 782.133 1826.59 776.133 1826.59 769.2C1826.59 762.267 1828.86 756.4 1833.39 751.6C1837.93 746.533 1843.93 744 1851.39 744C1858.86 744 1864.86 746.533 1869.39 751.6C1873.93 756.4 1876.19 762.267 1876.19 769.2C1876.19 776.133 1873.93 782.133 1869.39 787.2C1864.86 792 1858.86 794.4 1851.39 794.4C1843.93 794.4 1837.93 792 1833.39 787.2ZM1939.25 790V502H1984.85V622H2105.65V502H2151.25V790H2105.65V660.4H1984.85V790H1939.25ZM2237.68 790V502H2283.28V751.6H2392.48L2386.88 790H2237.68ZM2447.84 790V502H2493.44V790H2447.84ZM2579.87 790V504.4C2600.67 501.2 2632.54 499.6 2675.47 499.6C2704.27 499.6 2727.07 507.6 2743.87 523.6C2760.94 539.333 2769.47 558.133 2769.47 580C2769.47 606.933 2758.81 628 2737.47 643.2C2763.34 657.333 2776.27 679.733 2776.27 710.4C2776.27 733.6 2767.87 753.467 2751.07 770C2734.54 786.533 2709.47 794.8 2675.87 794.8C2635.87 794.8 2603.87 793.2 2579.87 790ZM2625.47 628.8H2697.07C2700.01 626.4 2702.27 624.533 2703.87 623.2C2705.74 621.867 2707.74 620 2709.87 617.6C2712.01 614.933 2713.87 612.133 2715.47 609.2C2719.47 601.733 2721.47 593.733 2721.47 585.2C2721.47 552.133 2702.14 535.6 2663.47 535.6C2655.21 535.6 2642.54 536.133 2625.47 537.2V628.8ZM2625.47 756.4C2647.34 758 2662.27 758.8 2670.27 758.8C2691.61 758.8 2706.54 754.533 2715.07 746C2723.87 737.467 2728.27 725.333 2728.27 709.6C2728.27 693.6 2723.74 681.6 2714.67 673.6C2705.87 665.333 2690.67 661.2 2669.07 661.2H2625.47V756.4Z" fill="white"/>
<path d="M766.2 790H744.2V812H766.2V790ZM766.2 502V480H744.2V502H766.2ZM811.8 502H833.8V480H811.8V502ZM811.8 751.6H789.8V773.6H811.8V751.6ZM921 751.6L942.77 754.775L946.441 729.6H921V751.6ZM915.4 790V812H934.424L937.17 793.175L915.4 790ZM788.2 790V502H744.2V790H788.2ZM766.2 524H811.8V480H766.2V524ZM789.8 502V751.6H833.8V502H789.8ZM811.8 773.6H921V729.6H811.8V773.6ZM899.23 748.425L893.63 786.825L937.17 793.175L942.77 754.775L899.23 748.425ZM915.4 768H766.2V812H915.4V768ZM961.344 502V480H939.344V502H961.344ZM1006.94 502H1028.94V480H1006.94V502ZM1020.94 742L1003.88 755.888L1004.06 756.105L1004.24 756.317L1020.94 742ZM1125.74 502V480H1103.74V502H1125.74ZM1171.34 502H1193.34V480H1171.34V502ZM1143.74 766.4L1159.52 781.733L1159.57 781.677L1159.63 781.622L1143.74 766.4ZM986.544 770.4L971.112 786.08L971.238 786.204L971.365 786.325L986.544 770.4ZM983.344 703.2V502H939.344V703.2H983.344ZM961.344 524H1006.94V480H961.344V524ZM984.944 502V696H1028.94V502H984.944ZM984.944 696C984.944 718.73 990.506 739.456 1003.88 755.888L1038.01 728.112C1032.71 721.611 1028.94 711.67 1028.94 696H984.944ZM1004.24 756.317C1019.31 773.902 1041.08 780.8 1064.94 780.8V736.8C1049.34 736.8 1041.78 732.498 1037.65 727.683L1004.24 756.317ZM1064.94 780.8C1088.75 780.8 1110.61 774.657 1126.3 758.553C1141.89 742.555 1147.74 720.45 1147.74 696.4H1103.74C1103.74 713.95 1099.47 723.045 1094.79 727.847C1090.21 732.543 1081.67 736.8 1064.94 736.8V780.8ZM1147.74 696.4V502H1103.74V696.4H1147.74ZM1125.74 524H1171.34V480H1125.74V524ZM1149.34 502V689.2H1193.34V502H1149.34ZM1149.34 689.2C1149.34 717.076 1141.53 736.914 1127.86 751.178L1159.63 781.622C1182.76 757.486 1193.34 725.857 1193.34 689.2H1149.34ZM1127.97 751.067C1114.89 764.522 1094.81 772.8 1064.14 772.8V816.8C1102.81 816.8 1135.8 806.144 1159.52 781.733L1127.97 751.067ZM1064.14 772.8C1032.5 772.8 1013.13 765.343 1001.72 754.475L971.365 786.325C994.096 807.99 1026.45 816.8 1064.14 816.8V772.8ZM1001.98 754.72C990.198 743.129 983.344 726.831 983.344 703.2H939.344C939.344 736.102 949.29 764.604 971.112 786.08L1001.98 754.72ZM1295.38 790H1273.38V812H1295.38V790ZM1295.38 538H1317.38V516H1295.38V538ZM1210.18 538H1188.18V560H1210.18V538ZM1210.18 502V480H1188.18V502H1210.18ZM1429.38 502L1451.11 505.382L1455.06 480H1429.38V502ZM1423.78 538V560H1442.62L1445.51 541.382L1423.78 538ZM1340.98 538V516H1318.98V538H1340.98ZM1340.98 790V812H1362.98V790H1340.98ZM1317.38 790V538H1273.38V790H1317.38ZM1295.38 516H1210.18V560H1295.38V516ZM1232.18 538V502H1188.18V538H1232.18ZM1210.18 524H1429.38V480H1210.18V524ZM1407.64 498.618L1402.04 534.618L1445.51 541.382L1451.11 505.382L1407.64 498.618ZM1423.78 516H1340.98V560H1423.78V516ZM1318.98 538V790H1362.98V538H1318.98ZM1340.98 768H1295.38V812H1340.98V768ZM1472.06 790H1450.06V812H1472.06V790ZM1472.06 502V480H1450.06V502H1472.06ZM1517.66 502H1539.66V480H1517.66V502ZM1517.66 790V812H1539.66V790H1517.66ZM1494.06 790V502H1450.06V790H1494.06ZM1472.06 524H1517.66V480H1472.06V524ZM1495.66 502V790H1539.66V502H1495.66ZM1517.66 768H1472.06V812H1517.66V768ZM1669.69 790H1647.69V812H1669.69V790ZM1669.69 675.2H1691.69V669.471L1688.9 664.47L1669.69 675.2ZM1574.49 504.8L1572.28 482.911L1538.94 486.273L1555.28 515.53L1574.49 504.8ZM1622.09 500L1641.58 489.792L1634.68 476.619L1619.88 478.111L1622.09 500ZM1692.49 634.4L1673 644.608L1692.44 681.708L1711.96 644.654L1692.49 634.4ZM1763.29 500L1765.5 478.111L1750.74 476.623L1743.83 489.746L1763.29 500ZM1810.89 504.8L1830.09 515.545L1846.47 486.276L1813.1 482.911L1810.89 504.8ZM1715.29 675.6L1696.09 664.855L1693.29 669.862V675.6H1715.29ZM1715.29 790V812H1737.29V790H1715.29ZM1691.69 790V675.2H1647.69V790H1691.69ZM1688.9 664.47L1593.7 494.07L1555.28 515.53L1650.48 685.93L1688.9 664.47ZM1576.7 526.689L1624.3 521.889L1619.88 478.111L1572.28 482.911L1576.7 526.689ZM1602.6 510.208L1673 644.608L1711.98 624.192L1641.58 489.792L1602.6 510.208ZM1711.96 644.654L1782.76 510.254L1743.83 489.746L1673.03 624.146L1711.96 644.654ZM1761.08 521.889L1808.68 526.689L1813.1 482.911L1765.5 478.111L1761.08 521.889ZM1791.69 494.055L1696.09 664.855L1734.49 686.345L1830.09 515.545L1791.69 494.055ZM1693.29 675.6V790H1737.29V675.6H1693.29ZM1715.29 768H1669.69V812H1715.29V768ZM1833.39 787.2L1817 801.869L1817.2 802.09L1817.4 802.306L1833.39 787.2ZM1833.39 751.6L1849.39 766.706L1849.59 766.49L1849.79 766.269L1833.39 751.6ZM1869.39 751.6L1853 766.269L1853.2 766.49L1853.4 766.706L1869.39 751.6ZM1869.39 787.2L1885.39 802.306L1885.59 802.09L1885.79 801.869L1869.39 787.2ZM1849.79 772.531C1848.94 771.585 1848.59 770.839 1848.59 769.2H1804.59C1804.59 781.428 1808.78 792.682 1817 801.869L1849.79 772.531ZM1848.59 769.2C1848.59 768.167 1848.75 767.686 1848.82 767.529C1848.87 767.39 1848.98 767.135 1849.39 766.706L1817.4 736.494C1808.8 745.599 1804.59 756.96 1804.59 769.2H1848.59ZM1849.79 766.269C1849.92 766.129 1849.97 766.096 1849.94 766.116C1849.91 766.137 1849.87 766.159 1849.85 766.167C1849.78 766.2 1850.17 766 1851.39 766V722C1838.36 722 1826.14 726.71 1817 736.931L1849.79 766.269ZM1851.39 766C1852.61 766 1853.01 766.2 1852.94 766.167C1852.92 766.159 1852.88 766.137 1852.85 766.116C1852.82 766.096 1852.87 766.129 1853 766.269L1885.79 736.931C1876.64 726.71 1864.43 722 1851.39 722V766ZM1853.4 766.706C1853.8 767.135 1853.92 767.39 1853.97 767.529C1854.03 767.686 1854.19 768.167 1854.19 769.2H1898.19C1898.19 756.96 1893.99 745.599 1885.39 736.494L1853.4 766.706ZM1854.19 769.2C1854.19 770.839 1853.84 771.585 1853 772.531L1885.79 801.869C1894.01 792.682 1898.19 781.428 1898.19 769.2H1854.19ZM1853.4 772.094C1853.31 772.19 1853.28 772.206 1853.3 772.188C1853.33 772.168 1853.35 772.163 1853.32 772.174C1853.29 772.186 1852.76 772.4 1851.39 772.4V816.4C1864.04 816.4 1876.14 812.102 1885.39 802.306L1853.4 772.094ZM1851.39 772.4C1850.03 772.4 1849.49 772.186 1849.46 772.174C1849.44 772.163 1849.46 772.168 1849.48 772.188C1849.51 772.206 1849.48 772.19 1849.39 772.094L1817.4 802.306C1826.65 812.102 1838.75 816.4 1851.39 816.4V772.4ZM1939.25 790H1917.25V812H1939.25V790ZM1939.25 502V480H1917.25V502H1939.25ZM1984.85 502H2006.85V480H1984.85V502ZM1984.85 622H1962.85V644H1984.85V622ZM2105.65 622V644H2127.65V622H2105.65ZM2105.65 502V480H2083.65V502H2105.65ZM2151.25 502H2173.25V480H2151.25V502ZM2151.25 790V812H2173.25V790H2151.25ZM2105.65 790H2083.65V812H2105.65V790ZM2105.65 660.4H2127.65V638.4H2105.65V660.4ZM1984.85 660.4V638.4H1962.85V660.4H1984.85ZM1984.85 790V812H2006.85V790H1984.85ZM1961.25 790V502H1917.25V790H1961.25ZM1939.25 524H1984.85V480H1939.25V524ZM1962.85 502V622H2006.85V502H1962.85ZM1984.85 644H2105.65V600H1984.85V644ZM2127.65 622V502H2083.65V622H2127.65ZM2105.65 524H2151.25V480H2105.65V524ZM2129.25 502V790H2173.25V502H2129.25ZM2151.25 768H2105.65V812H2151.25V768ZM2127.65 790V660.4H2083.65V790H2127.65ZM2105.65 638.4H1984.85V682.4H2105.65V638.4ZM1962.85 660.4V790H2006.85V660.4H1962.85ZM1984.85 768H1939.25V812H1984.85V768ZM2237.68 790H2215.68V812H2237.68V790ZM2237.68 502V480H2215.68V502H2237.68ZM2283.28 502H2305.28V480H2283.28V502ZM2283.28 751.6H2261.28V773.6H2283.28V751.6ZM2392.48 751.6L2414.25 754.775L2417.93 729.6H2392.48V751.6ZM2386.88 790V812H2405.91L2408.65 793.175L2386.88 790ZM2259.68 790V502H2215.68V790H2259.68ZM2237.68 524H2283.28V480H2237.68V524ZM2261.28 502V751.6H2305.28V502H2261.28ZM2283.28 773.6H2392.48V729.6H2283.28V773.6ZM2370.71 748.425L2365.11 786.825L2408.65 793.175L2414.25 754.775L2370.71 748.425ZM2386.88 768H2237.68V812H2386.88V768ZM2447.84 790H2425.84V812H2447.84V790ZM2447.84 502V480H2425.84V502H2447.84ZM2493.44 502H2515.44V480H2493.44V502ZM2493.44 790V812H2515.44V790H2493.44ZM2469.84 790V502H2425.84V790H2469.84ZM2447.84 524H2493.44V480H2447.84V524ZM2471.44 502V790H2515.44V502H2471.44ZM2493.44 768H2447.84V812H2493.44V768ZM2579.87 790H2557.87V809.261L2576.96 811.807L2579.87 790ZM2579.87 504.4L2576.53 482.656L2557.87 485.526V504.4H2579.87ZM2743.87 523.6L2728.7 539.531L2728.83 539.654L2728.96 539.775L2743.87 523.6ZM2737.47 643.2L2724.71 625.283L2696.1 645.664L2726.92 662.506L2737.47 643.2ZM2751.07 770L2735.64 754.32L2735.58 754.381L2735.52 754.444L2751.07 770ZM2625.47 628.8H2603.47V650.8H2625.47V628.8ZM2697.07 628.8V650.8H2704.93L2711 645.827L2697.07 628.8ZM2703.87 623.2L2691.08 605.298L2690.42 605.774L2689.79 606.299L2703.87 623.2ZM2709.87 617.6L2726.31 632.216L2726.69 631.789L2727.05 631.343L2709.87 617.6ZM2715.47 609.2L2734.79 619.735L2734.83 619.662L2734.86 619.589L2715.47 609.2ZM2625.47 537.2L2624.1 515.243L2603.47 516.532V537.2H2625.47ZM2625.47 756.4H2603.47V776.849L2623.87 778.341L2625.47 756.4ZM2715.07 746L2699.76 730.206L2699.64 730.324L2699.52 730.444L2715.07 746ZM2714.67 673.6L2699.61 689.635L2699.86 689.869L2700.12 690.096L2714.67 673.6ZM2625.47 661.2V639.2H2603.47V661.2H2625.47ZM2601.87 790V504.4H2557.87V790H2601.87ZM2583.22 526.144C2602.28 523.211 2632.76 521.6 2675.47 521.6V477.6C2632.32 477.6 2599.06 479.189 2576.53 482.656L2583.22 526.144ZM2675.47 521.6C2700.06 521.6 2716.92 528.314 2728.7 539.531L2759.04 507.669C2737.22 486.886 2708.49 477.6 2675.47 477.6V521.6ZM2728.96 539.775C2741.82 551.632 2747.47 564.691 2747.47 580H2791.47C2791.47 551.576 2780.06 527.035 2758.78 507.425L2728.96 539.775ZM2747.47 580C2747.47 600.057 2740.05 614.347 2724.71 625.283L2750.24 661.117C2777.56 641.653 2791.47 613.809 2791.47 580H2747.47ZM2726.92 662.506C2736.82 667.913 2743.34 674.364 2747.52 681.6C2751.72 688.883 2754.27 698.208 2754.27 710.4H2798.27C2798.27 691.925 2794.35 674.717 2785.62 659.6C2776.87 644.436 2763.99 632.62 2748.02 623.894L2726.92 662.506ZM2754.27 710.4C2754.27 727.599 2748.31 741.847 2735.64 754.32L2766.5 785.68C2787.43 765.086 2798.27 739.601 2798.27 710.4H2754.27ZM2735.52 754.444C2724.62 765.337 2706.2 772.8 2675.87 772.8V816.8C2712.74 816.8 2744.45 807.73 2766.63 785.556L2735.52 754.444ZM2675.87 772.8C2636.31 772.8 2605.4 771.209 2582.78 768.193L2576.96 811.807C2602.35 815.191 2635.44 816.8 2675.87 816.8V772.8ZM2625.47 650.8H2697.07V606.8H2625.47V650.8ZM2711 645.827C2713.95 643.413 2716.28 641.497 2717.96 640.101L2689.79 606.299C2688.26 607.569 2686.06 609.387 2683.14 611.773L2711 645.827ZM2716.66 641.102C2720.28 638.519 2723.49 635.397 2726.31 632.216L2693.43 602.984C2691.99 604.603 2691.2 605.214 2691.08 605.298L2716.66 641.102ZM2727.05 631.343C2729.97 627.694 2732.56 623.823 2734.79 619.735L2696.16 598.665C2695.19 600.444 2694.04 602.173 2692.69 603.857L2727.05 631.343ZM2734.86 619.589C2740.59 608.902 2743.47 597.33 2743.47 585.2H2699.47C2699.47 590.136 2698.35 594.564 2696.08 598.811L2734.86 619.589ZM2743.47 585.2C2743.47 564.298 2737.2 544.903 2721.27 531.28C2706 518.221 2685.43 513.6 2663.47 513.6V557.6C2680.18 557.6 2688.61 561.246 2692.67 564.72C2696.08 567.63 2699.47 573.036 2699.47 585.2H2743.47ZM2663.47 513.6C2654.48 513.6 2641.25 514.171 2624.1 515.243L2626.84 559.157C2643.83 558.096 2655.93 557.6 2663.47 557.6V513.6ZM2603.47 537.2V628.8H2647.47V537.2H2603.47ZM2623.87 778.341C2645.65 779.936 2661.35 780.8 2670.27 780.8V736.8C2663.19 736.8 2649.02 736.064 2627.08 734.459L2623.87 778.341ZM2670.27 780.8C2693.31 780.8 2715.76 776.424 2730.63 761.556L2699.52 730.444C2697.32 732.643 2689.9 736.8 2670.27 736.8V780.8ZM2730.39 761.794C2744.59 748.025 2750.27 729.51 2750.27 709.6H2706.27C2706.27 721.156 2703.16 726.908 2699.76 730.206L2730.39 761.794ZM2750.27 709.6C2750.27 689.445 2744.43 670.521 2729.23 657.104L2700.12 690.096C2703.04 692.679 2706.27 697.755 2706.27 709.6H2750.27ZM2729.73 657.565C2714.66 643.401 2692.26 639.2 2669.07 639.2V683.2C2689.08 683.2 2697.09 687.266 2699.61 689.635L2729.73 657.565ZM2669.07 639.2H2625.47V683.2H2669.07V639.2ZM2603.47 661.2V756.4H2647.47V661.2H2603.47Z" fill="white" mask="url(#path-1-outside-1_5_51)"/>
<path d="M766.2 790H744.2V812H766.2V790ZM766.2 502V480H744.2V502H766.2ZM811.8 502H833.8V480H811.8V502ZM811.8 751.6H789.8V773.6H811.8V751.6ZM921 751.6L942.77 754.775L946.441 729.6H921V751.6ZM915.4 790V812H934.424L937.17 793.175L915.4 790ZM788.2 790V502H744.2V790H788.2ZM766.2 524H811.8V480H766.2V524ZM789.8 502V751.6H833.8V502H789.8ZM811.8 773.6H921V729.6H811.8V773.6ZM899.23 748.425L893.63 786.825L937.17 793.175L942.77 754.775L899.23 748.425ZM915.4 768H766.2V812H915.4V768ZM961.344 502V480H939.344V502H961.344ZM1006.94 502H1028.94V480H1006.94V502ZM1020.94 742L1003.88 755.888L1004.06 756.105L1004.24 756.317L1020.94 742ZM1125.74 502V480H1103.74V502H1125.74ZM1171.34 502H1193.34V480H1171.34V502ZM1143.74 766.4L1159.52 781.733L1159.57 781.677L1159.63 781.622L1143.74 766.4ZM986.544 770.4L971.112 786.08L971.238 786.204L971.365 786.325L986.544 770.4ZM983.344 703.2V502H939.344V703.2H983.344ZM961.344 524H1006.94V480H961.344V524ZM984.944 502V696H1028.94V502H984.944ZM984.944 696C984.944 718.73 990.506 739.456 1003.88 755.888L1038.01 728.112C1032.71 721.611 1028.94 711.67 1028.94 696H984.944ZM1004.24 756.317C1019.31 773.902 1041.08 780.8 1064.94 780.8V736.8C1049.34 736.8 1041.78 732.498 1037.65 727.683L1004.24 756.317ZM1064.94 780.8C1088.75 780.8 1110.61 774.657 1126.3 758.553C1141.89 742.555 1147.74 720.45 1147.74 696.4H1103.74C1103.74 713.95 1099.47 723.045 1094.79 727.847C1090.21 732.543 1081.67 736.8 1064.94 736.8V780.8ZM1147.74 696.4V502H1103.74V696.4H1147.74ZM1125.74 524H1171.34V480H1125.74V524ZM1149.34 502V689.2H1193.34V502H1149.34ZM1149.34 689.2C1149.34 717.076 1141.53 736.914 1127.86 751.178L1159.63 781.622C1182.76 757.486 1193.34 725.857 1193.34 689.2H1149.34ZM1127.97 751.067C1114.89 764.522 1094.81 772.8 1064.14 772.8V816.8C1102.81 816.8 1135.8 806.144 1159.52 781.733L1127.97 751.067ZM1064.14 772.8C1032.5 772.8 1013.13 765.343 1001.72 754.475L971.365 786.325C994.096 807.99 1026.45 816.8 1064.14 816.8V772.8ZM1001.98 754.72C990.198 743.129 983.344 726.831 983.344 703.2H939.344C939.344 736.102 949.29 764.604 971.112 786.08L1001.98 754.72ZM1295.38 790H1273.38V812H1295.38V790ZM1295.38 538H1317.38V516H1295.38V538ZM1210.18 538H1188.18V560H1210.18V538ZM1210.18 502V480H1188.18V502H1210.18ZM1429.38 502L1451.11 505.382L1455.06 480H1429.38V502ZM1423.78 538V560H1442.62L1445.51 541.382L1423.78 538ZM1340.98 538V516H1318.98V538H1340.98ZM1340.98 790V812H1362.98V790H1340.98ZM1317.38 790V538H1273.38V790H1317.38ZM1295.38 516H1210.18V560H1295.38V516ZM1232.18 538V502H1188.18V538H1232.18ZM1210.18 524H1429.38V480H1210.18V524ZM1407.64 498.618L1402.04 534.618L1445.51 541.382L1451.11 505.382L1407.64 498.618ZM1423.78 516H1340.98V560H1423.78V516ZM1318.98 538V790H1362.98V538H1318.98ZM1340.98 768H1295.38V812H1340.98V768ZM1472.06 790H1450.06V812H1472.06V790ZM1472.06 502V480H1450.06V502H1472.06ZM1517.66 502H1539.66V480H1517.66V502ZM1517.66 790V812H1539.66V790H1517.66ZM1494.06 790V502H1450.06V790H1494.06ZM1472.06 524H1517.66V480H1472.06V524ZM1495.66 502V790H1539.66V502H1495.66ZM1517.66 768H1472.06V812H1517.66V768ZM1669.69 790H1647.69V812H1669.69V790ZM1669.69 675.2H1691.69V669.471L1688.9 664.47L1669.69 675.2ZM1574.49 504.8L1572.28 482.911L1538.94 486.273L1555.28 515.53L1574.49 504.8ZM1622.09 500L1641.58 489.792L1634.68 476.619L1619.88 478.111L1622.09 500ZM1692.49 634.4L1673 644.608L1692.44 681.708L1711.96 644.654L1692.49 634.4ZM1763.29 500L1765.5 478.111L1750.74 476.623L1743.83 489.746L1763.29 500ZM1810.89 504.8L1830.09 515.545L1846.47 486.276L1813.1 482.911L1810.89 504.8ZM1715.29 675.6L1696.09 664.855L1693.29 669.862V675.6H1715.29ZM1715.29 790V812H1737.29V790H1715.29ZM1691.69 790V675.2H1647.69V790H1691.69ZM1688.9 664.47L1593.7 494.07L1555.28 515.53L1650.48 685.93L1688.9 664.47ZM1576.7 526.689L1624.3 521.889L1619.88 478.111L1572.28 482.911L1576.7 526.689ZM1602.6 510.208L1673 644.608L1711.98 624.192L1641.58 489.792L1602.6 510.208ZM1711.96 644.654L1782.76 510.254L1743.83 489.746L1673.03 624.146L1711.96 644.654ZM1761.08 521.889L1808.68 526.689L1813.1 482.911L1765.5 478.111L1761.08 521.889ZM1791.69 494.055L1696.09 664.855L1734.49 686.345L1830.09 515.545L1791.69 494.055ZM1693.29 675.6V790H1737.29V675.6H1693.29ZM1715.29 768H1669.69V812H1715.29V768ZM1833.39 787.2L1817 801.869L1817.2 802.09L1817.4 802.306L1833.39 787.2ZM1833.39 751.6L1849.39 766.706L1849.59 766.49L1849.79 766.269L1833.39 751.6ZM1869.39 751.6L1853 766.269L1853.2 766.49L1853.4 766.706L1869.39 751.6ZM1869.39 787.2L1885.39 802.306L1885.59 802.09L1885.79 801.869L1869.39 787.2ZM1849.79 772.531C1848.94 771.585 1848.59 770.839 1848.59 769.2H1804.59C1804.59 781.428 1808.78 792.682 1817 801.869L1849.79 772.531ZM1848.59 769.2C1848.59 768.167 1848.75 767.686 1848.82 767.529C1848.87 767.39 1848.98 767.135 1849.39 766.706L1817.4 736.494C1808.8 745.599 1804.59 756.96 1804.59 769.2H1848.59ZM1849.79 766.269C1849.92 766.129 1849.97 766.096 1849.94 766.116C1849.91 766.137 1849.87 766.159 1849.85 766.167C1849.78 766.2 1850.17 766 1851.39 766V722C1838.36 722 1826.14 726.71 1817 736.931L1849.79 766.269ZM1851.39 766C1852.61 766 1853.01 766.2 1852.94 766.167C1852.92 766.159 1852.88 766.137 1852.85 766.116C1852.82 766.096 1852.87 766.129 1853 766.269L1885.79 736.931C1876.64 726.71 1864.43 722 1851.39 722V766ZM1853.4 766.706C1853.8 767.135 1853.92 767.39 1853.97 767.529C1854.03 767.686 1854.19 768.167 1854.19 769.2H1898.19C1898.19 756.96 1893.99 745.599 1885.39 736.494L1853.4 766.706ZM1854.19 769.2C1854.19 770.839 1853.84 771.585 1853 772.531L1885.79 801.869C1894.01 792.682 1898.19 781.428 1898.19 769.2H1854.19ZM1853.4 772.094C1853.31 772.19 1853.28 772.206 1853.3 772.188C1853.33 772.168 1853.35 772.163 1853.32 772.174C1853.29 772.186 1852.76 772.4 1851.39 772.4V816.4C1864.04 816.4 1876.14 812.102 1885.39 802.306L1853.4 772.094ZM1851.39 772.4C1850.03 772.4 1849.49 772.186 1849.46 772.174C1849.44 772.163 1849.46 772.168 1849.48 772.188C1849.51 772.206 1849.48 772.19 1849.39 772.094L1817.4 802.306C1826.65 812.102 1838.75 816.4 1851.39 816.4V772.4ZM1939.25 790H1917.25V812H1939.25V790ZM1939.25 502V480H1917.25V502H1939.25ZM1984.85 502H2006.85V480H1984.85V502ZM1984.85 622H1962.85V644H1984.85V622ZM2105.65 622V644H2127.65V622H2105.65ZM2105.65 502V480H2083.65V502H2105.65ZM2151.25 502H2173.25V480H2151.25V502ZM2151.25 790V812H2173.25V790H2151.25ZM2105.65 790H2083.65V812H2105.65V790ZM2105.65 660.4H2127.65V638.4H2105.65V660.4ZM1984.85 660.4V638.4H1962.85V660.4H1984.85ZM1984.85 790V812H2006.85V790H1984.85ZM1961.25 790V502H1917.25V790H1961.25ZM1939.25 524H1984.85V480H1939.25V524ZM1962.85 502V622H2006.85V502H1962.85ZM1984.85 644H2105.65V600H1984.85V644ZM2127.65 622V502H2083.65V622H2127.65ZM2105.65 524H2151.25V480H2105.65V524ZM2129.25 502V790H2173.25V502H2129.25ZM2151.25 768H2105.65V812H2151.25V768ZM2127.65 790V660.4H2083.65V790H2127.65ZM2105.65 638.4H1984.85V682.4H2105.65V638.4ZM1962.85 660.4V790H2006.85V660.4H1962.85ZM1984.85 768H1939.25V812H1984.85V768ZM2237.68 790H2215.68V812H2237.68V790ZM2237.68 502V480H2215.68V502H2237.68ZM2283.28 502H2305.28V480H2283.28V502ZM2283.28 751.6H2261.28V773.6H2283.28V751.6ZM2392.48 751.6L2414.25 754.775L2417.93 729.6H2392.48V751.6ZM2386.88 790V812H2405.91L2408.65 793.175L2386.88 790ZM2259.68 790V502H2215.68V790H2259.68ZM2237.68 524H2283.28V480H2237.68V524ZM2261.28 502V751.6H2305.28V502H2261.28ZM2283.28 773.6H2392.48V729.6H2283.28V773.6ZM2370.71 748.425L2365.11 786.825L2408.65 793.175L2414.25 754.775L2370.71 748.425ZM2386.88 768H2237.68V812H2386.88V768ZM2447.84 790H2425.84V812H2447.84V790ZM2447.84 502V480H2425.84V502H2447.84ZM2493.44 502H2515.44V480H2493.44V502ZM2493.44 790V812H2515.44V790H2493.44ZM2469.84 790V502H2425.84V790H2469.84ZM2447.84 524H2493.44V480H2447.84V524ZM2471.44 502V790H2515.44V502H2471.44ZM2493.44 768H2447.84V812H2493.44V768ZM2579.87 790H2557.87V809.261L2576.96 811.807L2579.87 790ZM2579.87 504.4L2576.53 482.656L2557.87 485.526V504.4H2579.87ZM2743.87 523.6L2728.7 539.531L2728.83 539.654L2728.96 539.775L2743.87 523.6ZM2737.47 643.2L2724.71 625.283L2696.1 645.664L2726.92 662.506L2737.47 643.2ZM2751.07 770L2735.64 754.32L2735.58 754.381L2735.52 754.444L2751.07 770ZM2625.47 628.8H2603.47V650.8H2625.47V628.8ZM2697.07 628.8V650.8H2704.93L2711 645.827L2697.07 628.8ZM2703.87 623.2L2691.08 605.298L2690.42 605.774L2689.79 606.299L2703.87 623.2ZM2709.87 617.6L2726.31 632.216L2726.69 631.789L2727.05 631.343L2709.87 617.6ZM2715.47 609.2L2734.79 619.735L2734.83 619.662L2734.86 619.589L2715.47 609.2ZM2625.47 537.2L2624.1 515.243L2603.47 516.532V537.2H2625.47ZM2625.47 756.4H2603.47V776.849L2623.87 778.341L2625.47 756.4ZM2715.07 746L2699.76 730.206L2699.64 730.324L2699.52 730.444L2715.07 746ZM2714.67 673.6L2699.61 689.635L2699.86 689.869L2700.12 690.096L2714.67 673.6ZM2625.47 661.2V639.2H2603.47V661.2H2625.47ZM2601.87 790V504.4H2557.87V790H2601.87ZM2583.22 526.144C2602.28 523.211 2632.76 521.6 2675.47 521.6V477.6C2632.32 477.6 2599.06 479.189 2576.53 482.656L2583.22 526.144ZM2675.47 521.6C2700.06 521.6 2716.92 528.314 2728.7 539.531L2759.04 507.669C2737.22 486.886 2708.49 477.6 2675.47 477.6V521.6ZM2728.96 539.775C2741.82 551.632 2747.47 564.691 2747.47 580H2791.47C2791.47 551.576 2780.06 527.035 2758.78 507.425L2728.96 539.775ZM2747.47 580C2747.47 600.057 2740.05 614.347 2724.71 625.283L2750.24 661.117C2777.56 641.653 2791.47 613.809 2791.47 580H2747.47ZM2726.92 662.506C2736.82 667.913 2743.34 674.364 2747.52 681.6C2751.72 688.883 2754.27 698.208 2754.27 710.4H2798.27C2798.27 691.925 2794.35 674.717 2785.62 659.6C2776.87 644.436 2763.99 632.62 2748.02 623.894L2726.92 662.506ZM2754.27 710.4C2754.27 727.599 2748.31 741.847 2735.64 754.32L2766.5 785.68C2787.43 765.086 2798.27 739.601 2798.27 710.4H2754.27ZM2735.52 754.444C2724.62 765.337 2706.2 772.8 2675.87 772.8V816.8C2712.74 816.8 2744.45 807.73 2766.63 785.556L2735.52 754.444ZM2675.87 772.8C2636.31 772.8 2605.4 771.209 2582.78 768.193L2576.96 811.807C2602.35 815.191 2635.44 816.8 2675.87 816.8V772.8ZM2625.47 650.8H2697.07V606.8H2625.47V650.8ZM2711 645.827C2713.95 643.413 2716.28 641.497 2717.96 640.101L2689.79 606.299C2688.26 607.569 2686.06 609.387 2683.14 611.773L2711 645.827ZM2716.66 641.102C2720.28 638.519 2723.49 635.397 2726.31 632.216L2693.43 602.984C2691.99 604.603 2691.2 605.214 2691.08 605.298L2716.66 641.102ZM2727.05 631.343C2729.97 627.694 2732.56 623.823 2734.79 619.735L2696.16 598.665C2695.19 600.444 2694.04 602.173 2692.69 603.857L2727.05 631.343ZM2734.86 619.589C2740.59 608.902 2743.47 597.33 2743.47 585.2H2699.47C2699.47 590.136 2698.35 594.564 2696.08 598.811L2734.86 619.589ZM2743.47 585.2C2743.47 564.298 2737.2 544.903 2721.27 531.28C2706 518.221 2685.43 513.6 2663.47 513.6V557.6C2680.18 557.6 2688.61 561.246 2692.67 564.72C2696.08 567.63 2699.47 573.036 2699.47 585.2H2743.47ZM2663.47 513.6C2654.48 513.6 2641.25 514.171 2624.1 515.243L2626.84 559.157C2643.83 558.096 2655.93 557.6 2663.47 557.6V513.6ZM2603.47 537.2V628.8H2647.47V537.2H2603.47ZM2623.87 778.341C2645.65 779.936 2661.35 780.8 2670.27 780.8V736.8C2663.19 736.8 2649.02 736.064 2627.08 734.459L2623.87 778.341ZM2670.27 780.8C2693.31 780.8 2715.76 776.424 2730.63 761.556L2699.52 730.444C2697.32 732.643 2689.9 736.8 2670.27 736.8V780.8ZM2730.39 761.794C2744.59 748.025 2750.27 729.51 2750.27 709.6H2706.27C2706.27 721.156 2703.16 726.908 2699.76 730.206L2730.39 761.794ZM2750.27 709.6C2750.27 689.445 2744.43 670.521 2729.23 657.104L2700.12 690.096C2703.04 692.679 2706.27 697.755 2706.27 709.6H2750.27ZM2729.73 657.565C2714.66 643.401 2692.26 639.2 2669.07 639.2V683.2C2689.08 683.2 2697.09 687.266 2699.61 689.635L2729.73 657.565ZM2669.07 639.2H2625.47V683.2H2669.07V639.2ZM2603.47 661.2V756.4H2647.47V661.2H2603.47Z" fill="white" mask="url(#path-1-outside-1_5_51)"/>
<mask id="path-3-outside-2_5_51" maskUnits="userSpaceOnUse" x="759" y="490" width="2023" height="308" fill="black">
<rect fill="white" x="759" y="490" width="2023" height="308"/>
<path d="M765.2 787V499H810.8V748.6H920L914.4 787H765.2ZM960.344 700.2V499H1005.94V693C1005.94 712.2 1010.61 727.533 1019.94 739C1029.54 750.2 1044.21 755.8 1063.94 755.8C1104.48 755.8 1124.74 735 1124.74 693.4V499H1170.34V686.2C1170.34 718.467 1161.14 744.2 1142.74 763.4C1124.34 782.333 1097.81 791.8 1063.14 791.8C1028.48 791.8 1002.61 783.667 985.544 767.4C968.744 750.867 960.344 728.467 960.344 700.2ZM1294.38 787V535H1209.18V499H1428.38L1422.78 535H1339.98V787H1294.38ZM1471.06 787V499H1516.66V787H1471.06ZM1668.69 787V672.2L1573.49 501.8L1621.09 497L1691.49 631.4L1762.29 497L1809.89 501.8L1714.29 672.6V787H1668.69ZM1832.39 784.2C1827.86 779.133 1825.59 773.133 1825.59 766.2C1825.59 759.267 1827.86 753.4 1832.39 748.6C1836.93 743.533 1842.93 741 1850.39 741C1857.86 741 1863.86 743.533 1868.39 748.6C1872.93 753.4 1875.19 759.267 1875.19 766.2C1875.19 773.133 1872.93 779.133 1868.39 784.2C1863.86 789 1857.86 791.4 1850.39 791.4C1842.93 791.4 1836.93 789 1832.39 784.2ZM1938.25 787V499H1983.85V619H2104.65V499H2150.25V787H2104.65V657.4H1983.85V787H1938.25ZM2236.68 787V499H2282.28V748.6H2391.48L2385.88 787H2236.68ZM2446.84 787V499H2492.44V787H2446.84ZM2578.87 787V501.4C2599.67 498.2 2631.54 496.6 2674.47 496.6C2703.27 496.6 2726.07 504.6 2742.87 520.6C2759.94 536.333 2768.47 555.133 2768.47 577C2768.47 603.933 2757.81 625 2736.47 640.2C2762.34 654.333 2775.27 676.733 2775.27 707.4C2775.27 730.6 2766.87 750.467 2750.07 767C2733.54 783.533 2708.47 791.8 2674.87 791.8C2634.87 791.8 2602.87 790.2 2578.87 787ZM2624.47 625.8H2696.07C2699.01 623.4 2701.27 621.533 2702.87 620.2C2704.74 618.867 2706.74 617 2708.87 614.6C2711.01 611.933 2712.87 609.133 2714.47 606.2C2718.47 598.733 2720.47 590.733 2720.47 582.2C2720.47 549.133 2701.14 532.6 2662.47 532.6C2654.21 532.6 2641.54 533.133 2624.47 534.2V625.8ZM2624.47 753.4C2646.34 755 2661.27 755.8 2669.27 755.8C2690.61 755.8 2705.54 751.533 2714.07 743C2722.87 734.467 2727.27 722.333 2727.27 706.6C2727.27 690.6 2722.74 678.6 2713.67 670.6C2704.87 662.333 2689.67 658.2 2668.07 658.2H2624.47V753.4Z"/>
</mask>
<path d="M765.2 787V499H810.8V748.6H920L914.4 787H765.2ZM960.344 700.2V499H1005.94V693C1005.94 712.2 1010.61 727.533 1019.94 739C1029.54 750.2 1044.21 755.8 1063.94 755.8C1104.48 755.8 1124.74 735 1124.74 693.4V499H1170.34V686.2C1170.34 718.467 1161.14 744.2 1142.74 763.4C1124.34 782.333 1097.81 791.8 1063.14 791.8C1028.48 791.8 1002.61 783.667 985.544 767.4C968.744 750.867 960.344 728.467 960.344 700.2ZM1294.38 787V535H1209.18V499H1428.38L1422.78 535H1339.98V787H1294.38ZM1471.06 787V499H1516.66V787H1471.06ZM1668.69 787V672.2L1573.49 501.8L1621.09 497L1691.49 631.4L1762.29 497L1809.89 501.8L1714.29 672.6V787H1668.69ZM1832.39 784.2C1827.86 779.133 1825.59 773.133 1825.59 766.2C1825.59 759.267 1827.86 753.4 1832.39 748.6C1836.93 743.533 1842.93 741 1850.39 741C1857.86 741 1863.86 743.533 1868.39 748.6C1872.93 753.4 1875.19 759.267 1875.19 766.2C1875.19 773.133 1872.93 779.133 1868.39 784.2C1863.86 789 1857.86 791.4 1850.39 791.4C1842.93 791.4 1836.93 789 1832.39 784.2ZM1938.25 787V499H1983.85V619H2104.65V499H2150.25V787H2104.65V657.4H1983.85V787H1938.25ZM2236.68 787V499H2282.28V748.6H2391.48L2385.88 787H2236.68ZM2446.84 787V499H2492.44V787H2446.84ZM2578.87 787V501.4C2599.67 498.2 2631.54 496.6 2674.47 496.6C2703.27 496.6 2726.07 504.6 2742.87 520.6C2759.94 536.333 2768.47 555.133 2768.47 577C2768.47 603.933 2757.81 625 2736.47 640.2C2762.34 654.333 2775.27 676.733 2775.27 707.4C2775.27 730.6 2766.87 750.467 2750.07 767C2733.54 783.533 2708.47 791.8 2674.87 791.8C2634.87 791.8 2602.87 790.2 2578.87 787ZM2624.47 625.8H2696.07C2699.01 623.4 2701.27 621.533 2702.87 620.2C2704.74 618.867 2706.74 617 2708.87 614.6C2711.01 611.933 2712.87 609.133 2714.47 606.2C2718.47 598.733 2720.47 590.733 2720.47 582.2C2720.47 549.133 2701.14 532.6 2662.47 532.6C2654.21 532.6 2641.54 533.133 2624.47 534.2V625.8ZM2624.47 753.4C2646.34 755 2661.27 755.8 2669.27 755.8C2690.61 755.8 2705.54 751.533 2714.07 743C2722.87 734.467 2727.27 722.333 2727.27 706.6C2727.27 690.6 2722.74 678.6 2713.67 670.6C2704.87 662.333 2689.67 658.2 2668.07 658.2H2624.47V753.4Z" fill="black"/>
<path d="M765.2 787H759.2V793H765.2V787ZM765.2 499V493H759.2V499H765.2ZM810.8 499H816.8V493H810.8V499ZM810.8 748.6H804.8V754.6H810.8V748.6ZM920 748.6L925.937 749.466L926.938 742.6H920V748.6ZM914.4 787V793H919.588L920.337 787.866L914.4 787ZM771.2 787V499H759.2V787H771.2ZM765.2 505H810.8V493H765.2V505ZM804.8 499V748.6H816.8V499H804.8ZM810.8 754.6H920V742.6H810.8V754.6ZM914.063 747.734L908.463 786.134L920.337 787.866L925.937 749.466L914.063 747.734ZM914.4 781H765.2V793H914.4V781ZM960.344 499V493H954.344V499H960.344ZM1005.94 499H1011.94V493H1005.94V499ZM1019.94 739L1015.29 742.788L1015.34 742.847L1015.39 742.905L1019.94 739ZM1124.74 499V493H1118.74V499H1124.74ZM1170.34 499H1176.34V493H1170.34V499ZM1142.74 763.4L1147.05 767.582L1147.06 767.567L1147.08 767.551L1142.74 763.4ZM985.544 767.4L981.335 771.676L981.369 771.71L981.404 771.743L985.544 767.4ZM966.344 700.2V499H954.344V700.2H966.344ZM960.344 505H1005.94V493H960.344V505ZM999.944 499V693H1011.94V499H999.944ZM999.944 693C999.944 713.163 1004.85 729.967 1015.29 742.788L1024.6 735.212C1016.37 725.1 1011.94 711.237 1011.94 693H999.944ZM1015.39 742.905C1026.48 755.846 1043.08 761.8 1063.94 761.8V749.8C1045.34 749.8 1032.61 744.554 1024.5 735.095L1015.39 742.905ZM1063.94 761.8C1085.18 761.8 1102.19 756.343 1113.84 744.387C1125.46 732.46 1130.74 715.086 1130.74 693.4H1118.74C1118.74 713.314 1113.89 727.14 1105.25 736.013C1096.63 744.857 1083.25 749.8 1063.94 749.8V761.8ZM1130.74 693.4V499H1118.74V693.4H1130.74ZM1124.74 505H1170.34V493H1124.74V505ZM1164.34 499V686.2H1176.34V499H1164.34ZM1164.34 686.2C1164.34 717.269 1155.52 741.395 1138.41 759.249L1147.08 767.551C1166.77 747.005 1176.34 719.664 1176.34 686.2H1164.34ZM1138.44 759.218C1121.49 776.658 1096.72 785.8 1063.14 785.8V797.8C1098.9 797.8 1127.19 788.009 1147.05 767.582L1138.44 759.218ZM1063.14 785.8C1029.3 785.8 1005.21 777.851 989.683 763.057L981.404 771.743C1000.02 789.482 1027.65 797.8 1063.14 797.8V785.8ZM989.752 763.124C974.322 747.938 966.344 727.203 966.344 700.2H954.344C954.344 729.731 963.165 753.795 981.335 771.676L989.752 763.124ZM1294.38 787H1288.38V793H1294.38V787ZM1294.38 535H1300.38V529H1294.38V535ZM1209.18 535H1203.18V541H1209.18V535ZM1209.18 499V493H1203.18V499H1209.18ZM1428.38 499L1434.3 499.922L1435.38 493H1428.38V499ZM1422.78 535V541H1427.91L1428.7 535.922L1422.78 535ZM1339.98 535V529H1333.98V535H1339.98ZM1339.98 787V793H1345.98V787H1339.98ZM1300.38 787V535H1288.38V787H1300.38ZM1294.38 529H1209.18V541H1294.38V529ZM1215.18 535V499H1203.18V535H1215.18ZM1209.18 505H1428.38V493H1209.18V505ZM1422.45 498.078L1416.85 534.078L1428.7 535.922L1434.3 499.922L1422.45 498.078ZM1422.78 529H1339.98V541H1422.78V529ZM1333.98 535V787H1345.98V535H1333.98ZM1339.98 781H1294.38V793H1339.98V781ZM1471.06 787H1465.06V793H1471.06V787ZM1471.06 499V493H1465.06V499H1471.06ZM1516.66 499H1522.66V493H1516.66V499ZM1516.66 787V793H1522.66V787H1516.66ZM1477.06 787V499H1465.06V787H1477.06ZM1471.06 505H1516.66V493H1471.06V505ZM1510.66 499V787H1522.66V499H1510.66ZM1516.66 781H1471.06V793H1516.66V781ZM1668.69 787H1662.69V793H1668.69V787ZM1668.69 672.2H1674.69V670.638L1673.93 669.274L1668.69 672.2ZM1573.49 501.8L1572.89 495.83L1563.79 496.747L1568.25 504.726L1573.49 501.8ZM1621.09 497L1626.41 494.216L1624.52 490.623L1620.49 491.03L1621.09 497ZM1691.49 631.4L1686.18 634.184L1691.48 644.302L1696.8 634.196L1691.49 631.4ZM1762.29 497L1762.89 491.03L1758.87 490.624L1756.98 494.204L1762.29 497ZM1809.89 501.8L1815.13 504.73L1819.59 496.748L1810.49 495.83L1809.89 501.8ZM1714.29 672.6L1709.05 669.669L1708.29 671.035V672.6H1714.29ZM1714.29 787V793H1720.29V787H1714.29ZM1674.69 787V672.2H1662.69V787H1674.69ZM1673.93 669.274L1578.73 498.874L1568.25 504.726L1663.45 675.126L1673.93 669.274ZM1574.09 507.77L1621.69 502.97L1620.49 491.03L1572.89 495.83L1574.09 507.77ZM1615.78 499.784L1686.18 634.184L1696.81 628.616L1626.41 494.216L1615.78 499.784ZM1696.8 634.196L1767.6 499.796L1756.98 494.204L1686.18 628.604L1696.8 634.196ZM1761.69 502.97L1809.29 507.77L1810.49 495.83L1762.89 491.03L1761.69 502.97ZM1804.65 498.869L1709.05 669.669L1719.53 675.53L1815.13 504.73L1804.65 498.869ZM1708.29 672.6V787H1720.29V672.6H1708.29ZM1714.29 781H1668.69V793H1714.29V781ZM1832.39 784.2L1827.92 788.201L1827.98 788.261L1828.03 788.32L1832.39 784.2ZM1832.39 748.6L1836.76 752.72L1836.81 752.661L1836.87 752.601L1832.39 748.6ZM1868.39 748.6L1863.92 752.601L1863.98 752.661L1864.03 752.72L1868.39 748.6ZM1868.39 784.2L1872.76 788.32L1872.81 788.261L1872.87 788.201L1868.39 784.2ZM1836.87 780.199C1833.34 776.256 1831.59 771.689 1831.59 766.2H1819.59C1819.59 774.577 1822.38 782.01 1827.92 788.201L1836.87 780.199ZM1831.59 766.2C1831.59 760.714 1833.33 756.346 1836.76 752.72L1828.03 744.48C1822.39 750.454 1819.59 757.819 1819.59 766.2H1831.59ZM1836.87 752.601C1840.14 748.94 1844.45 747 1850.39 747V735C1841.41 735 1833.71 738.127 1827.92 744.599L1836.87 752.601ZM1850.39 747C1856.34 747 1860.65 748.94 1863.92 752.601L1872.87 744.599C1867.07 738.127 1859.38 735 1850.39 735V747ZM1864.03 752.72C1867.46 756.346 1869.19 760.714 1869.19 766.2H1881.19C1881.19 757.819 1878.4 750.454 1872.76 744.48L1864.03 752.72ZM1869.19 766.2C1869.19 771.689 1867.45 776.256 1863.92 780.199L1872.87 788.201C1878.4 782.01 1881.19 774.577 1881.19 766.2H1869.19ZM1864.03 780.08C1860.79 783.518 1856.45 785.4 1850.39 785.4V797.4C1859.27 797.4 1866.94 794.482 1872.76 788.32L1864.03 780.08ZM1850.39 785.4C1844.34 785.4 1840 783.518 1836.76 780.08L1828.03 788.32C1833.85 794.482 1841.51 797.4 1850.39 797.4V785.4ZM1938.25 787H1932.25V793H1938.25V787ZM1938.25 499V493H1932.25V499H1938.25ZM1983.85 499H1989.85V493H1983.85V499ZM1983.85 619H1977.85V625H1983.85V619ZM2104.65 619V625H2110.65V619H2104.65ZM2104.65 499V493H2098.65V499H2104.65ZM2150.25 499H2156.25V493H2150.25V499ZM2150.25 787V793H2156.25V787H2150.25ZM2104.65 787H2098.65V793H2104.65V787ZM2104.65 657.4H2110.65V651.4H2104.65V657.4ZM1983.85 657.4V651.4H1977.85V657.4H1983.85ZM1983.85 787V793H1989.85V787H1983.85ZM1944.25 787V499H1932.25V787H1944.25ZM1938.25 505H1983.85V493H1938.25V505ZM1977.85 499V619H1989.85V499H1977.85ZM1983.85 625H2104.65V613H1983.85V625ZM2110.65 619V499H2098.65V619H2110.65ZM2104.65 505H2150.25V493H2104.65V505ZM2144.25 499V787H2156.25V499H2144.25ZM2150.25 781H2104.65V793H2150.25V781ZM2110.65 787V657.4H2098.65V787H2110.65ZM2104.65 651.4H1983.85V663.4H2104.65V651.4ZM1977.85 657.4V787H1989.85V657.4H1977.85ZM1983.85 781H1938.25V793H1983.85V781ZM2236.68 787H2230.68V793H2236.68V787ZM2236.68 499V493H2230.68V499H2236.68ZM2282.28 499H2288.28V493H2282.28V499ZM2282.28 748.6H2276.28V754.6H2282.28V748.6ZM2391.48 748.6L2397.42 749.466L2398.42 742.6H2391.48V748.6ZM2385.88 787V793H2391.07L2391.82 787.866L2385.88 787ZM2242.68 787V499H2230.68V787H2242.68ZM2236.68 505H2282.28V493H2236.68V505ZM2276.28 499V748.6H2288.28V499H2276.28ZM2282.28 754.6H2391.48V742.6H2282.28V754.6ZM2385.55 747.734L2379.95 786.134L2391.82 787.866L2397.42 749.466L2385.55 747.734ZM2385.88 781H2236.68V793H2385.88V781ZM2446.84 787H2440.84V793H2446.84V787ZM2446.84 499V493H2440.84V499H2446.84ZM2492.44 499H2498.44V493H2492.44V499ZM2492.44 787V793H2498.44V787H2492.44ZM2452.84 787V499H2440.84V787H2452.84ZM2446.84 505H2492.44V493H2446.84V505ZM2486.44 499V787H2498.44V499H2486.44ZM2492.44 781H2446.84V793H2492.44V781ZM2578.87 787H2572.87V792.253L2578.08 792.947L2578.87 787ZM2578.87 501.4L2577.96 495.47L2572.87 496.252V501.4H2578.87ZM2742.87 520.6L2738.73 524.945L2738.77 524.978L2738.81 525.011L2742.87 520.6ZM2736.47 640.2L2732.99 635.313L2725.19 640.872L2733.59 645.465L2736.47 640.2ZM2750.07 767L2745.86 762.724L2745.85 762.74L2745.83 762.757L2750.07 767ZM2624.47 625.8H2618.47V631.8H2624.47V625.8ZM2696.07 625.8V631.8H2698.21L2699.87 630.444L2696.07 625.8ZM2702.87 620.2L2699.38 615.318L2699.2 615.448L2699.03 615.591L2702.87 620.2ZM2708.87 614.6L2713.36 618.586L2713.46 618.47L2713.56 618.348L2708.87 614.6ZM2714.47 606.2L2719.74 609.073L2719.75 609.053L2719.76 609.033L2714.47 606.2ZM2624.47 534.2L2624.1 528.212L2618.47 528.563V534.2H2624.47ZM2624.47 753.4H2618.47V758.977L2624.03 759.384L2624.47 753.4ZM2714.07 743L2709.9 738.693L2709.86 738.725L2709.83 738.757L2714.07 743ZM2713.67 670.6L2709.56 674.973L2709.63 675.037L2709.7 675.099L2713.67 670.6ZM2624.47 658.2V652.2H2618.47V658.2H2624.47ZM2584.87 787V501.4H2572.87V787H2584.87ZM2579.78 507.33C2600.11 504.203 2631.6 502.6 2674.47 502.6V490.6C2631.48 490.6 2599.23 492.197 2577.96 495.47L2579.78 507.33ZM2674.47 502.6C2702.12 502.6 2723.3 510.249 2738.73 524.945L2747.01 516.255C2728.84 498.951 2704.42 490.6 2674.47 490.6V502.6ZM2738.81 525.011C2754.72 539.687 2762.47 556.922 2762.47 577H2774.47C2774.47 553.345 2765.15 532.979 2746.94 516.189L2738.81 525.011ZM2762.47 577C2762.47 602.058 2752.69 621.276 2732.99 635.313L2739.95 645.087C2762.92 628.723 2774.47 605.809 2774.47 577H2762.47ZM2733.59 645.465C2745.7 652.079 2754.53 660.481 2760.38 670.6C2766.23 680.732 2769.27 692.923 2769.27 707.4H2781.27C2781.27 691.21 2777.85 676.868 2770.77 664.6C2763.68 652.319 2753.11 642.454 2739.35 634.935L2733.59 645.465ZM2769.27 707.4C2769.27 728.963 2761.54 747.298 2745.86 762.724L2754.28 771.276C2772.21 753.636 2781.27 732.237 2781.27 707.4H2769.27ZM2745.83 762.757C2730.83 777.753 2707.58 785.8 2674.87 785.8V797.8C2709.36 797.8 2736.24 789.314 2754.31 771.243L2745.83 762.757ZM2674.87 785.8C2634.99 785.8 2603.29 784.202 2579.66 781.053L2578.08 792.947C2602.46 796.198 2634.75 797.8 2674.87 797.8V785.8ZM2624.47 631.8H2696.07V619.8H2624.47V631.8ZM2699.87 630.444C2702.81 628.04 2705.09 626.16 2706.71 624.809L2699.03 615.591C2697.45 616.907 2695.2 618.76 2692.27 621.156L2699.87 630.444ZM2706.36 625.082C2708.7 623.408 2711.03 621.199 2713.36 618.586L2704.39 610.614C2702.44 612.801 2700.77 614.325 2699.38 615.318L2706.36 625.082ZM2713.56 618.348C2715.9 615.413 2717.97 612.321 2719.74 609.073L2709.2 603.327C2707.78 605.945 2706.11 608.453 2704.19 610.852L2713.56 618.348ZM2719.76 609.033C2724.23 600.688 2726.47 591.714 2726.47 582.2H2714.47C2714.47 589.752 2712.71 596.778 2709.18 603.367L2719.76 609.033ZM2726.47 582.2C2726.47 564.475 2721.25 550.167 2709.87 540.44C2698.68 530.866 2682.52 526.6 2662.47 526.6V538.6C2681.09 538.6 2693.93 542.6 2702.07 549.56C2710.03 556.366 2714.47 566.858 2714.47 582.2H2726.47ZM2662.47 526.6C2654.01 526.6 2641.19 527.144 2624.1 528.212L2624.85 540.188C2641.89 539.123 2654.4 538.6 2662.47 538.6V526.6ZM2618.47 534.2V625.8H2630.47V534.2H2618.47ZM2624.03 759.384C2645.88 760.982 2661.02 761.8 2669.27 761.8V749.8C2661.52 749.8 2646.8 749.018 2624.91 747.416L2624.03 759.384ZM2669.27 761.8C2691.07 761.8 2708.05 757.504 2718.31 747.243L2709.83 738.757C2703.02 745.563 2690.14 749.8 2669.27 749.8V761.8ZM2718.25 747.307C2728.52 737.346 2733.27 723.472 2733.27 706.6H2721.27C2721.27 721.194 2717.22 731.587 2709.9 738.693L2718.25 747.307ZM2733.27 706.6C2733.27 689.467 2728.38 675.579 2717.64 666.101L2709.7 675.099C2717.09 681.621 2721.27 691.733 2721.27 706.6H2733.27ZM2717.78 666.227C2707.27 656.352 2690.11 652.2 2668.07 652.2V664.2C2689.24 664.2 2702.48 668.315 2709.56 674.973L2717.78 666.227ZM2668.07 652.2H2624.47V664.2H2668.07V652.2ZM2618.47 658.2V753.4H2630.47V658.2H2618.47Z" fill="black" mask="url(#path-3-outside-2_5_51)"/>
<path d="M765.2 787H759.2V793H765.2V787ZM765.2 499V493H759.2V499H765.2ZM810.8 499H816.8V493H810.8V499ZM810.8 748.6H804.8V754.6H810.8V748.6ZM920 748.6L925.937 749.466L926.938 742.6H920V748.6ZM914.4 787V793H919.588L920.337 787.866L914.4 787ZM771.2 787V499H759.2V787H771.2ZM765.2 505H810.8V493H765.2V505ZM804.8 499V748.6H816.8V499H804.8ZM810.8 754.6H920V742.6H810.8V754.6ZM914.063 747.734L908.463 786.134L920.337 787.866L925.937 749.466L914.063 747.734ZM914.4 781H765.2V793H914.4V781ZM960.344 499V493H954.344V499H960.344ZM1005.94 499H1011.94V493H1005.94V499ZM1019.94 739L1015.29 742.788L1015.34 742.847L1015.39 742.905L1019.94 739ZM1124.74 499V493H1118.74V499H1124.74ZM1170.34 499H1176.34V493H1170.34V499ZM1142.74 763.4L1147.05 767.582L1147.06 767.567L1147.08 767.551L1142.74 763.4ZM985.544 767.4L981.335 771.676L981.369 771.71L981.404 771.743L985.544 767.4ZM966.344 700.2V499H954.344V700.2H966.344ZM960.344 505H1005.94V493H960.344V505ZM999.944 499V693H1011.94V499H999.944ZM999.944 693C999.944 713.163 1004.85 729.967 1015.29 742.788L1024.6 735.212C1016.37 725.1 1011.94 711.237 1011.94 693H999.944ZM1015.39 742.905C1026.48 755.846 1043.08 761.8 1063.94 761.8V749.8C1045.34 749.8 1032.61 744.554 1024.5 735.095L1015.39 742.905ZM1063.94 761.8C1085.18 761.8 1102.19 756.343 1113.84 744.387C1125.46 732.46 1130.74 715.086 1130.74 693.4H1118.74C1118.74 713.314 1113.89 727.14 1105.25 736.013C1096.63 744.857 1083.25 749.8 1063.94 749.8V761.8ZM1130.74 693.4V499H1118.74V693.4H1130.74ZM1124.74 505H1170.34V493H1124.74V505ZM1164.34 499V686.2H1176.34V499H1164.34ZM1164.34 686.2C1164.34 717.269 1155.52 741.395 1138.41 759.249L1147.08 767.551C1166.77 747.005 1176.34 719.664 1176.34 686.2H1164.34ZM1138.44 759.218C1121.49 776.658 1096.72 785.8 1063.14 785.8V797.8C1098.9 797.8 1127.19 788.009 1147.05 767.582L1138.44 759.218ZM1063.14 785.8C1029.3 785.8 1005.21 777.851 989.683 763.057L981.404 771.743C1000.02 789.482 1027.65 797.8 1063.14 797.8V785.8ZM989.752 763.124C974.322 747.938 966.344 727.203 966.344 700.2H954.344C954.344 729.731 963.165 753.795 981.335 771.676L989.752 763.124ZM1294.38 787H1288.38V793H1294.38V787ZM1294.38 535H1300.38V529H1294.38V535ZM1209.18 535H1203.18V541H1209.18V535ZM1209.18 499V493H1203.18V499H1209.18ZM1428.38 499L1434.3 499.922L1435.38 493H1428.38V499ZM1422.78 535V541H1427.91L1428.7 535.922L1422.78 535ZM1339.98 535V529H1333.98V535H1339.98ZM1339.98 787V793H1345.98V787H1339.98ZM1300.38 787V535H1288.38V787H1300.38ZM1294.38 529H1209.18V541H1294.38V529ZM1215.18 535V499H1203.18V535H1215.18ZM1209.18 505H1428.38V493H1209.18V505ZM1422.45 498.078L1416.85 534.078L1428.7 535.922L1434.3 499.922L1422.45 498.078ZM1422.78 529H1339.98V541H1422.78V529ZM1333.98 535V787H1345.98V535H1333.98ZM1339.98 781H1294.38V793H1339.98V781ZM1471.06 787H1465.06V793H1471.06V787ZM1471.06 499V493H1465.06V499H1471.06ZM1516.66 499H1522.66V493H1516.66V499ZM1516.66 787V793H1522.66V787H1516.66ZM1477.06 787V499H1465.06V787H1477.06ZM1471.06 505H1516.66V493H1471.06V505ZM1510.66 499V787H1522.66V499H1510.66ZM1516.66 781H1471.06V793H1516.66V781ZM1668.69 787H1662.69V793H1668.69V787ZM1668.69 672.2H1674.69V670.638L1673.93 669.274L1668.69 672.2ZM1573.49 501.8L1572.89 495.83L1563.79 496.747L1568.25 504.726L1573.49 501.8ZM1621.09 497L1626.41 494.216L1624.52 490.623L1620.49 491.03L1621.09 497ZM1691.49 631.4L1686.18 634.184L1691.48 644.302L1696.8 634.196L1691.49 631.4ZM1762.29 497L1762.89 491.03L1758.87 490.624L1756.98 494.204L1762.29 497ZM1809.89 501.8L1815.13 504.73L1819.59 496.748L1810.49 495.83L1809.89 501.8ZM1714.29 672.6L1709.05 669.669L1708.29 671.035V672.6H1714.29ZM1714.29 787V793H1720.29V787H1714.29ZM1674.69 787V672.2H1662.69V787H1674.69ZM1673.93 669.274L1578.73 498.874L1568.25 504.726L1663.45 675.126L1673.93 669.274ZM1574.09 507.77L1621.69 502.97L1620.49 491.03L1572.89 495.83L1574.09 507.77ZM1615.78 499.784L1686.18 634.184L1696.81 628.616L1626.41 494.216L1615.78 499.784ZM1696.8 634.196L1767.6 499.796L1756.98 494.204L1686.18 628.604L1696.8 634.196ZM1761.69 502.97L1809.29 507.77L1810.49 495.83L1762.89 491.03L1761.69 502.97ZM1804.65 498.869L1709.05 669.669L1719.53 675.53L1815.13 504.73L1804.65 498.869ZM1708.29 672.6V787H1720.29V672.6H1708.29ZM1714.29 781H1668.69V793H1714.29V781ZM1832.39 784.2L1827.92 788.201L1827.98 788.261L1828.03 788.32L1832.39 784.2ZM1832.39 748.6L1836.76 752.72L1836.81 752.661L1836.87 752.601L1832.39 748.6ZM1868.39 748.6L1863.92 752.601L1863.98 752.661L1864.03 752.72L1868.39 748.6ZM1868.39 784.2L1872.76 788.32L1872.81 788.261L1872.87 788.201L1868.39 784.2ZM1836.87 780.199C1833.34 776.256 1831.59 771.689 1831.59 766.2H1819.59C1819.59 774.577 1822.38 782.01 1827.92 788.201L1836.87 780.199ZM1831.59 766.2C1831.59 760.714 1833.33 756.346 1836.76 752.72L1828.03 744.48C1822.39 750.454 1819.59 757.819 1819.59 766.2H1831.59ZM1836.87 752.601C1840.14 748.94 1844.45 747 1850.39 747V735C1841.41 735 1833.71 738.127 1827.92 744.599L1836.87 752.601ZM1850.39 747C1856.34 747 1860.65 748.94 1863.92 752.601L1872.87 744.599C1867.07 738.127 1859.38 735 1850.39 735V747ZM1864.03 752.72C1867.46 756.346 1869.19 760.714 1869.19 766.2H1881.19C1881.19 757.819 1878.4 750.454 1872.76 744.48L1864.03 752.72ZM1869.19 766.2C1869.19 771.689 1867.45 776.256 1863.92 780.199L1872.87 788.201C1878.4 782.01 1881.19 774.577 1881.19 766.2H1869.19ZM1864.03 780.08C1860.79 783.518 1856.45 785.4 1850.39 785.4V797.4C1859.27 797.4 1866.94 794.482 1872.76 788.32L1864.03 780.08ZM1850.39 785.4C1844.34 785.4 1840 783.518 1836.76 780.08L1828.03 788.32C1833.85 794.482 1841.51 797.4 1850.39 797.4V785.4ZM1938.25 787H1932.25V793H1938.25V787ZM1938.25 499V493H1932.25V499H1938.25ZM1983.85 499H1989.85V493H1983.85V499ZM1983.85 619H1977.85V625H1983.85V619ZM2104.65 619V625H2110.65V619H2104.65ZM2104.65 499V493H2098.65V499H2104.65ZM2150.25 499H2156.25V493H2150.25V499ZM2150.25 787V793H2156.25V787H2150.25ZM2104.65 787H2098.65V793H2104.65V787ZM2104.65 657.4H2110.65V651.4H2104.65V657.4ZM1983.85 657.4V651.4H1977.85V657.4H1983.85ZM1983.85 787V793H1989.85V787H1983.85ZM1944.25 787V499H1932.25V787H1944.25ZM1938.25 505H1983.85V493H1938.25V505ZM1977.85 499V619H1989.85V499H1977.85ZM1983.85 625H2104.65V613H1983.85V625ZM2110.65 619V499H2098.65V619H2110.65ZM2104.65 505H2150.25V493H2104.65V505ZM2144.25 499V787H2156.25V499H2144.25ZM2150.25 781H2104.65V793H2150.25V781ZM2110.65 787V657.4H2098.65V787H2110.65ZM2104.65 651.4H1983.85V663.4H2104.65V651.4ZM1977.85 657.4V787H1989.85V657.4H1977.85ZM1983.85 781H1938.25V793H1983.85V781ZM2236.68 787H2230.68V793H2236.68V787ZM2236.68 499V493H2230.68V499H2236.68ZM2282.28 499H2288.28V493H2282.28V499ZM2282.28 748.6H2276.28V754.6H2282.28V748.6ZM2391.48 748.6L2397.42 749.466L2398.42 742.6H2391.48V748.6ZM2385.88 787V793H2391.07L2391.82 787.866L2385.88 787ZM2242.68 787V499H2230.68V787H2242.68ZM2236.68 505H2282.28V493H2236.68V505ZM2276.28 499V748.6H2288.28V499H2276.28ZM2282.28 754.6H2391.48V742.6H2282.28V754.6ZM2385.55 747.734L2379.95 786.134L2391.82 787.866L2397.42 749.466L2385.55 747.734ZM2385.88 781H2236.68V793H2385.88V781ZM2446.84 787H2440.84V793H2446.84V787ZM2446.84 499V493H2440.84V499H2446.84ZM2492.44 499H2498.44V493H2492.44V499ZM2492.44 787V793H2498.44V787H2492.44ZM2452.84 787V499H2440.84V787H2452.84ZM2446.84 505H2492.44V493H2446.84V505ZM2486.44 499V787H2498.44V499H2486.44ZM2492.44 781H2446.84V793H2492.44V781ZM2578.87 787H2572.87V792.253L2578.08 792.947L2578.87 787ZM2578.87 501.4L2577.96 495.47L2572.87 496.252V501.4H2578.87ZM2742.87 520.6L2738.73 524.945L2738.77 524.978L2738.81 525.011L2742.87 520.6ZM2736.47 640.2L2732.99 635.313L2725.19 640.872L2733.59 645.465L2736.47 640.2ZM2750.07 767L2745.86 762.724L2745.85 762.74L2745.83 762.757L2750.07 767ZM2624.47 625.8H2618.47V631.8H2624.47V625.8ZM2696.07 625.8V631.8H2698.21L2699.87 630.444L2696.07 625.8ZM2702.87 620.2L2699.38 615.318L2699.2 615.448L2699.03 615.591L2702.87 620.2ZM2708.87 614.6L2713.36 618.586L2713.46 618.47L2713.56 618.348L2708.87 614.6ZM2714.47 606.2L2719.74 609.073L2719.75 609.053L2719.76 609.033L2714.47 606.2ZM2624.47 534.2L2624.1 528.212L2618.47 528.563V534.2H2624.47ZM2624.47 753.4H2618.47V758.977L2624.03 759.384L2624.47 753.4ZM2714.07 743L2709.9 738.693L2709.86 738.725L2709.83 738.757L2714.07 743ZM2713.67 670.6L2709.56 674.973L2709.63 675.037L2709.7 675.099L2713.67 670.6ZM2624.47 658.2V652.2H2618.47V658.2H2624.47ZM2584.87 787V501.4H2572.87V787H2584.87ZM2579.78 507.33C2600.11 504.203 2631.6 502.6 2674.47 502.6V490.6C2631.48 490.6 2599.23 492.197 2577.96 495.47L2579.78 507.33ZM2674.47 502.6C2702.12 502.6 2723.3 510.249 2738.73 524.945L2747.01 516.255C2728.84 498.951 2704.42 490.6 2674.47 490.6V502.6ZM2738.81 525.011C2754.72 539.687 2762.47 556.922 2762.47 577H2774.47C2774.47 553.345 2765.15 532.979 2746.94 516.189L2738.81 525.011ZM2762.47 577C2762.47 602.058 2752.69 621.276 2732.99 635.313L2739.95 645.087C2762.92 628.723 2774.47 605.809 2774.47 577H2762.47ZM2733.59 645.465C2745.7 652.079 2754.53 660.481 2760.38 670.6C2766.23 680.732 2769.27 692.923 2769.27 707.4H2781.27C2781.27 691.21 2777.85 676.868 2770.77 664.6C2763.68 652.319 2753.11 642.454 2739.35 634.935L2733.59 645.465ZM2769.27 707.4C2769.27 728.963 2761.54 747.298 2745.86 762.724L2754.28 771.276C2772.21 753.636 2781.27 732.237 2781.27 707.4H2769.27ZM2745.83 762.757C2730.83 777.753 2707.58 785.8 2674.87 785.8V797.8C2709.36 797.8 2736.24 789.314 2754.31 771.243L2745.83 762.757ZM2674.87 785.8C2634.99 785.8 2603.29 784.202 2579.66 781.053L2578.08 792.947C2602.46 796.198 2634.75 797.8 2674.87 797.8V785.8ZM2624.47 631.8H2696.07V619.8H2624.47V631.8ZM2699.87 630.444C2702.81 628.04 2705.09 626.16 2706.71 624.809L2699.03 615.591C2697.45 616.907 2695.2 618.76 2692.27 621.156L2699.87 630.444ZM2706.36 625.082C2708.7 623.408 2711.03 621.199 2713.36 618.586L2704.39 610.614C2702.44 612.801 2700.77 614.325 2699.38 615.318L2706.36 625.082ZM2713.56 618.348C2715.9 615.413 2717.97 612.321 2719.74 609.073L2709.2 603.327C2707.78 605.945 2706.11 608.453 2704.19 610.852L2713.56 618.348ZM2719.76 609.033C2724.23 600.688 2726.47 591.714 2726.47 582.2H2714.47C2714.47 589.752 2712.71 596.778 2709.18 603.367L2719.76 609.033ZM2726.47 582.2C2726.47 564.475 2721.25 550.167 2709.87 540.44C2698.68 530.866 2682.52 526.6 2662.47 526.6V538.6C2681.09 538.6 2693.93 542.6 2702.07 549.56C2710.03 556.366 2714.47 566.858 2714.47 582.2H2726.47ZM2662.47 526.6C2654.01 526.6 2641.19 527.144 2624.1 528.212L2624.85 540.188C2641.89 539.123 2654.4 538.6 2662.47 538.6V526.6ZM2618.47 534.2V625.8H2630.47V534.2H2618.47ZM2624.03 759.384C2645.88 760.982 2661.02 761.8 2669.27 761.8V749.8C2661.52 749.8 2646.8 749.018 2624.91 747.416L2624.03 759.384ZM2669.27 761.8C2691.07 761.8 2708.05 757.504 2718.31 747.243L2709.83 738.757C2703.02 745.563 2690.14 749.8 2669.27 749.8V761.8ZM2718.25 747.307C2728.52 737.346 2733.27 723.472 2733.27 706.6H2721.27C2721.27 721.194 2717.22 731.587 2709.9 738.693L2718.25 747.307ZM2733.27 706.6C2733.27 689.467 2728.38 675.579 2717.64 666.101L2709.7 675.099C2717.09 681.621 2721.27 691.733 2721.27 706.6H2733.27ZM2717.78 666.227C2707.27 656.352 2690.11 652.2 2668.07 652.2V664.2C2689.24 664.2 2702.48 668.315 2709.56 674.973L2717.78 666.227ZM2668.07 652.2H2624.47V664.2H2668.07V652.2ZM2618.47 658.2V753.4H2630.47V658.2H2618.47Z" fill="black" mask="url(#path-3-outside-2_5_51)"/>
<mask id="path-5-inside-3_5_51" fill="white">
<path d="M654.675 1203.8C650.575 1200.43 247.697 859.266 422.629 310.889L442.086 315.761C270.602 853.328 664.479 1187.4 668.468 1190.72L654.675 1203.8Z"/>
</mask>
<path d="M654.675 1203.8C650.575 1200.43 247.697 859.266 422.629 310.889L442.086 315.761C270.602 853.328 664.479 1187.4 668.468 1190.72L654.675 1203.8Z" fill="white"/>
<path d="M654.675 1203.8L634.363 1228.53L656.198 1246.46L676.698 1227.02L654.675 1203.8ZM422.629 310.889L430.403 279.848L401.27 272.553L392.143 301.164L422.629 310.889ZM442.086 315.761L472.572 325.487L482.934 293.003L449.859 284.72L442.086 315.761ZM668.468 1190.72L690.492 1213.93L716.631 1189.13L688.92 1166.1L668.468 1190.72ZM674.986 1179.07C675.004 1179.09 576.687 1096.2 499.97 947.084C423.653 798.749 368.726 585.16 453.116 320.615L392.143 301.164C210.707 869.929 628.619 1223.81 634.363 1228.53L674.986 1179.07ZM414.856 341.931L434.312 346.803L449.859 284.72L430.403 279.848L414.856 341.931ZM411.599 306.036C233.621 863.963 642.515 1210.76 648.016 1215.33L688.92 1166.1C689.112 1166.26 665.026 1145.97 631.486 1107.25C597.974 1068.56 555.305 1011.8 517.947 938.976C443.457 793.779 389.899 584.651 472.572 325.487L411.599 306.036ZM646.444 1167.5L632.651 1180.59L676.698 1227.02L690.492 1213.93L646.444 1167.5Z" fill="white" mask="url(#path-5-inside-3_5_51)"/>
<path d="M251.426 879.199C252.788 879.11 254.206 879.029 255.677 878.958C270.926 878.232 291.51 878.698 313.206 883.316C351.987 891.572 393.681 912.751 416.149 964.702C414.739 964.824 413.262 964.937 411.722 965.037C397.265 965.98 377.611 965.785 356.561 961.368C319.203 953.528 277.281 932.51 251.426 879.199Z" fill="white" stroke="white" stroke-width="32"/>
<path d="M360.427 804.334C360.76 805.444 361.067 806.518 361.35 807.553C322.856 809.211 293.794 803.219 271.822 793.597C246.694 782.592 229.946 766.454 218.632 749.804C207.227 733.019 201.246 715.544 198.138 702.132C197.735 700.394 197.382 698.731 197.073 697.154C275.634 700.07 316.49 730.919 338.209 760.039C350.152 776.051 356.788 792.193 360.427 804.334Z" fill="white" stroke="white" stroke-width="32"/>
<path d="M334.877 628.882C332.427 628.833 329.696 628.713 326.729 628.484C313.142 627.435 294.974 624.128 276.343 615.215C242.602 599.074 204.237 563.076 191.265 479.839C194.091 480.075 197.189 480.389 200.51 480.806C217.071 482.89 238.661 487.487 259.62 497.371C280.49 507.213 300.357 522.106 314.38 544.717C326.803 564.749 335.274 591.859 334.877 628.882Z" fill="white" stroke="white" stroke-width="32"/>
<path d="M252.742 308.275C251.193 281.605 256.765 249.05 275.066 209.806C277.046 211.379 279.177 213.133 281.423 215.064C293.717 225.632 309.217 241.317 322.3 261.85C346.407 299.686 362.977 354.782 333.902 427.539C331.069 425.967 327.911 424.113 324.528 421.966C310.686 413.177 293.517 399.74 279.438 380.987C265.464 362.374 254.497 338.499 252.742 308.275Z" fill="white" stroke="white" stroke-width="32"/>
<path d="M409.415 306.387C408.34 304.201 407.217 301.812 406.077 299.24C399.698 284.849 393.033 265.23 391.234 243.605C389.447 222.119 392.472 198.965 405.082 176.702C416.592 156.381 436.731 135.668 470.911 117.513C472.492 119.351 474.234 121.525 476.024 124.019C482.766 133.413 489.936 146.967 492.269 164.05C496.49 194.966 485.483 243.916 409.415 306.387Z" fill="white" stroke="white" stroke-width="32"/>
<path d="M489.497 877.497C501.759 844.357 532.489 804.841 610.84 785.186C611.066 787.026 611.27 789.01 611.434 791.12C612.452 804.236 611.889 821.766 605.859 840.028C599.892 858.099 588.469 877.24 567.138 893.91C548.219 908.695 520.929 921.98 481.589 930.452C481.515 928.989 481.462 927.44 481.436 925.813C481.234 913.012 482.754 895.724 489.497 877.497Z" fill="white" stroke="white" stroke-width="32"/>
<path d="M458.313 710.912C474.682 674.819 508.805 632.755 581.585 608.334C581.42 610.992 581.203 613.854 580.917 616.89C579.225 634.892 575.185 658.51 565.956 681.75C556.738 704.962 542.598 727.178 521.032 743.377C502.438 757.344 477.422 767.522 443.298 769.309C443.442 767.388 443.633 765.31 443.886 763.093C445.433 749.507 449.253 730.889 458.313 710.912Z" fill="white" stroke="white" stroke-width="32"/>
<path d="M540.354 535.66C512.478 577.866 475.805 612.503 430.992 613.115C431.295 610.164 431.709 606.841 432.277 603.215C434.657 588 439.662 567.838 450.057 547.636C468.38 512.024 504.176 474.606 577.12 465.324C576.27 467.384 575.358 469.552 574.385 471.814C566.72 489.615 555.33 512.984 540.354 535.66Z" fill="white" stroke="white" stroke-width="32"/>
<path d="M554.016 357.656C536.659 389.266 503.743 422.728 438.824 431.614C438.883 431.239 438.945 430.858 439.01 430.473C440.976 418.732 445.233 402.831 454.355 386.261C470.612 356.73 503.378 323.094 571.524 308.349C571.458 308.693 571.391 309.04 571.322 309.391C568.732 322.53 563.703 340.013 554.016 357.656Z" fill="white" stroke="white" stroke-width="32"/>
<path d="M363.886 814.933C363.931 815.342 363.963 815.669 363.985 815.908C324.335 820.164 294.438 814.317 271.891 803.171C249.252 791.98 233.987 775.43 223.691 758.326C213.393 741.219 208.069 723.562 205.321 710.176C203.947 703.484 203.217 697.863 202.831 693.917C202.638 691.944 202.531 690.391 202.472 689.331C202.446 688.858 202.429 688.483 202.419 688.214C278.631 686.99 318.995 718.991 340.332 751.281C351.033 767.476 356.958 783.76 360.207 795.997C361.831 802.114 362.786 807.218 363.335 810.789C363.609 812.575 363.782 813.978 363.886 814.933Z" fill="black" stroke="#F2DADA"/>
<path d="M585.678 1163.09C573.14 1151.06 260.265 842.645 398.851 351.343L413.584 355.507C277.599 837.606 583.725 1139.96 596.123 1151.91L585.678 1163.09Z" fill="black" stroke="#F2DADA"/>
<path d="M352.353 973.207C315.74 964.534 273.752 939.259 252.168 872.755C252.407 872.707 252.724 872.645 253.115 872.572C254.093 872.39 255.535 872.14 257.384 871.867C261.083 871.322 266.41 870.69 272.917 870.34C285.931 869.64 303.652 870.073 322.483 874.598C360.024 883.618 402.008 908.9 419.949 974.021C419.721 974.075 419.416 974.144 419.037 974.226C418.111 974.428 416.745 974.706 414.989 975.014C411.477 975.628 406.408 976.358 400.19 976.816C387.751 977.731 370.722 977.558 352.353 973.207Z" fill="black" stroke="#F2DADA"/>
<path d="M343.691 645.652C343.457 645.682 343.122 645.722 342.692 645.767C341.772 645.864 340.417 645.983 338.685 646.069C335.22 646.24 330.247 646.281 324.225 645.756C312.18 644.707 295.948 641.395 279.195 632.349C245.786 614.308 210.176 573.386 201.706 481.712C201.989 481.704 202.385 481.696 202.887 481.691C204.001 481.68 205.637 481.687 207.716 481.757C211.874 481.896 217.806 482.288 224.893 483.294C239.07 485.307 257.854 489.778 276.308 499.602C294.758 509.424 312.877 524.594 325.744 548.013C338.571 571.359 346.197 602.937 343.691 645.652Z" fill="black" stroke="#F2DADA"/>
<path d="M286.169 217.632C286.39 217.788 286.685 217.999 287.048 218.264C287.934 218.911 289.227 219.881 290.851 221.172C294.099 223.754 298.67 227.619 303.953 232.745C314.52 242.999 327.932 258.294 339.312 278.455C362.017 318.678 376.656 378.301 344.41 455.998C344.149 455.877 343.781 455.702 343.315 455.474C342.3 454.976 340.819 454.222 338.962 453.199C335.249 451.153 330.033 448.031 324.033 443.73C312.031 435.129 296.902 421.821 284.379 402.993C259.407 365.448 244.737 305.854 286.169 217.632Z" fill="black" stroke="#F2DADA"/>
<path d="M401.854 336.003C401.709 335.75 401.515 335.406 401.276 334.973C400.714 333.954 399.906 332.448 398.925 330.503C396.964 326.614 394.315 320.971 391.565 313.968C386.064 299.958 380.166 280.513 378.562 258.757C376.958 237.004 379.65 212.952 391.313 189.709C402.939 166.541 423.497 144.141 457.681 125.612C457.847 125.773 458.091 126.013 458.402 126.33C459.033 126.974 459.942 127.937 461.047 129.209C463.257 131.753 466.254 135.533 469.391 140.465C475.665 150.332 482.495 164.805 484.724 183.234C489.169 219.982 475.337 272.631 401.854 336.003Z" fill="black" stroke="#F2DADA"/>
<path d="M477.927 884.537C490.112 847.364 521.255 805.834 597.218 788.469C597.281 788.721 597.366 789.073 597.468 789.521C597.696 790.52 598.011 791.992 598.354 793.878C599.04 797.651 599.84 803.079 600.295 809.689C601.204 822.913 600.73 840.855 595.204 859.746C589.679 878.631 579.105 898.465 559.808 915.488C540.587 932.442 512.687 946.631 472.44 954.296C472.395 954.054 472.336 953.721 472.266 953.303C472.103 952.333 471.884 950.901 471.66 949.066C471.211 945.395 470.738 940.109 470.648 933.655C470.468 920.747 471.817 903.18 477.927 884.537Z" fill="black" stroke="#F2DADA"/>
<path d="M438.589 720.078C454.46 680.575 488.66 635.588 562.029 613.526C562.041 613.868 562.056 614.344 562.07 614.946C562.101 616.293 562.127 618.27 562.109 620.785C562.072 625.817 561.856 633.003 561.139 641.615C559.703 658.844 556.262 681.766 548.241 704.566C540.219 727.367 527.626 750.018 507.905 766.739C488.277 783.381 461.553 794.178 425.154 793.366C425.14 793.111 425.122 792.75 425.105 792.288C425.068 791.281 425.032 789.796 425.038 787.888C425.051 784.073 425.234 778.569 425.914 771.825C427.275 758.336 430.627 739.893 438.589 720.078Z" fill="black" stroke="#F2DADA"/>
<path d="M405.907 633.565C405.907 633.554 405.907 633.544 405.907 633.533C405.904 633.237 405.903 632.795 405.909 632.219C405.919 631.066 405.955 629.371 406.055 627.211C406.256 622.89 406.714 616.708 407.745 609.267C409.808 594.384 414.162 574.48 423.323 554.382C432.484 534.285 446.447 514.005 467.724 498.348C488.869 482.789 517.265 471.775 555.411 470.068C555.313 470.401 555.178 470.855 555.006 471.422C554.606 472.741 554.006 474.674 553.206 477.128C551.608 482.038 549.214 489.035 546.03 497.381C539.663 514.074 530.142 536.154 517.528 557.712C504.911 579.275 489.216 600.288 470.509 614.875C451.916 629.374 430.371 637.511 405.907 633.565ZM555.939 470.045C552.863 480.528 501.576 650.013 405.412 633.99L405.33 634.484C430.309 638.646 452.268 630.368 471.124 615.664C489.972 600.967 505.743 579.834 518.391 558.217C531.042 536.596 540.585 514.462 546.965 497.738C550.155 489.374 552.555 482.361 554.157 477.438C554.959 474.976 555.561 473.037 555.963 471.712C556.164 471.05 556.315 470.542 556.415 470.198C556.466 470.027 556.504 469.896 556.529 469.809L556.558 469.709L556.565 469.684L556.567 469.678C556.567 469.676 556.567 469.676 556.086 469.539L556.107 470.038C556.051 470.041 555.995 470.043 555.939 470.045Z" fill="black" stroke="#F2DADA"/>
<path d="M537.949 378.25C520.824 413.455 487.096 449.775 420.585 454.438C420.581 454.219 420.579 453.934 420.579 453.583C420.58 452.682 420.599 451.354 420.674 449.654C420.822 446.254 421.191 441.367 422.072 435.43C423.834 423.553 427.643 407.482 435.829 390.697C452.143 357.245 485.865 320.911 555.58 309.341C555.572 309.581 555.56 309.892 555.542 310.269C555.496 311.27 555.411 312.742 555.255 314.62C554.943 318.376 554.349 323.754 553.216 330.238C550.952 343.209 546.539 360.591 537.949 378.25Z" fill="black" stroke="#F2DADA"/>
</svg>
